<svg xmlns="http://www.w3.org/2000/svg" viewBox="0 0 128 128" role="img" aria-labelledby="title desc" shape-rendering="crispEdges"><title id="title">Animated pink girl Claude moon magic pet</title><desc id="desc">A tiny pink square pet casting moon magic.</desc><style>.wand{animation:w .9s steps(3) infinite;transform-origin:100px 74px}.glow{animation:g .9s steps(3) infinite;transform-origin:center}@keyframes w{0%,100%{transform:rotate(0)}50%{transform:rotate(-13deg)}}@keyframes g{0%,100%{opacity:.25;transform:scale(.75)}50%{opacity:1;transform:scale(1.1)}}</style><g class="glow"><rect x="98" y="19" width="6" height="18" fill="#ffd166"/><rect x="92" y="25" width="18" height="6" fill="#ffd166"/></g><rect x="37" y="21" width="12" height="30" rx="3" fill="#f7a1bd" stroke="#a94f72" stroke-width="4"/><rect x="79" y="21" width="12" height="30" rx="3" fill="#f7a1bd" stroke="#a94f72" stroke-width="4"/><rect x="33" y="44" width="62" height="54" rx="4" fill="#f59ab9" stroke="#9f4d6d" stroke-width="4"/><rect x="45" y="34" width="38" height="15" fill="#f59ab9"/><rect x="20" y="65" width="17" height="18" rx="3" fill="#f7a1bd" stroke="#a94f72" stroke-width="4"/><rect x="91" y="64" width="17" height="18" rx="3" fill="#f7a1bd" stroke="#a94f72" stroke-width="4"/><g class="wand"><rect x="105" y="45" width="5" height="42" fill="#7c4d88" transform="rotate(18 107 66)"/><path d="M107 24h13v22h-13c7-4 7-18 0-22Z" fill="#ffd166" stroke="#9a6d08" stroke-width="3"/></g><rect x="44" y="62" width="9" height="18" rx="2" fill="#242124"/><rect x="76" y="62" width="9" height="18" rx="2" fill="#242124"/><rect x="57" y="87" width="14" height="4" fill="#8a3b58"/><rect x="47" y="97" width="7" height="14" fill="#e978a0"/><rect x="62" y="97" width="7" height="14" fill="#e978a0"/><rect x="77" y="97" width="7" height="14" fill="#e978a0"/></svg>
